<?xml version="1.0" encoding="utf-8"?>
<!-- Generator: Adobe Illustrator 21.1.0, SVG Export Plug-In . SVG Version: 6.00 Build 0)  -->
<svg version="1.1" xmlns="http://www.w3.org/2000/svg" xmlns:xlink="http://www.w3.org/1999/xlink" x="0px" y="0px"
	 viewBox="0 0 42 44" style="enable-background:new 0 0 42 44;" xml:space="preserve">
<style type="text/css">
	.st0{enable-background:new    ;}
	.st1{fill-rule:evenodd;clip-rule:evenodd;fill:#FFFFFF;}
</style>
<g id="Фигура_10_1_" class="st0">
</g>
<g id="Фигура_10_копия_1_" class="st0">
</g>
<g id="Фигура_10_копия_2_1_" class="st0">
</g>
<g id="Фигура_10_копия_3_1_" class="st0">
</g>
<g id="Фигура_10_копия_4_1_" class="st0">
</g>
<g id="Фигура_10_копия_5_1_" class="st0">
	<g id="Фигура_10_копия_5_3_">
		<g>
			<path class="st1" d="M0,0v44h42V0H0z M39,41H3V3h36V41z M21.3,39c6.9,0,11.3-6.6,12.4-11.3c1.1-4.7-0.4-9-3.5-12.3
				C27,12.1,21.3,5,21.3,5s-1.1,2.8-4.4,5.7C13.5,13.5,8,18.2,8,25.8C8,33.3,14.4,39,21.3,39z M15.8,14.3c1.3-1.7,5.4-4.8,5.4-4.8
				v26.8c0,0-10.8-1.3-10.8-10.6C10.4,19.8,14.5,16,15.8,14.3z"/>
		</g>
	</g>
</g>
</svg>
