<?xml version="1.0" encoding="utf-8"?>
<!-- Generator: Adobe Illustrator 21.1.0, SVG Export Plug-In . SVG Version: 6.00 Build 0)  -->
<svg version="1.1" xmlns="http://www.w3.org/2000/svg" xmlns:xlink="http://www.w3.org/1999/xlink" x="0px" y="0px"
	 viewBox="0 0 42 44" style="enable-background:new 0 0 42 44;" xml:space="preserve">
<style type="text/css">
	.st0{enable-background:new    ;}
	.st1{fill-rule:evenodd;clip-rule:evenodd;fill:#FFFFFF;}
</style>
<g id="Фигура_10_1_" class="st0">
</g>
<g id="Фигура_10_копия_1_" class="st0">
</g>
<g id="Фигура_10_копия_2_1_" class="st0">
	<g id="Фигура_10_копия_2">
		<g>
			<path class="st1" d="M0,0v44h42V0H0z M22.4,40.3h-2.8c-0.5,0-1.6-0.8-1.6-1.3c0-0.5,1.1-1.3,1.6-1.3h2.8c0.5,0,1.6,0.8,1.6,1.3
				C24,39.5,22.9,40.3,22.4,40.3z M28,35H14V12h14V35z M39,41h-8.7c0.4-0.4,0.7-0.9,0.7-1.2V11.2c0-0.7-1.5-2.2-2.2-2.2H13.2
				c-0.7,0-2.2,1.5-2.2,2.2v28.6c0,0.3,0.3,0.8,0.7,1.2H3V3h36V41z"/>
		</g>
	</g>
</g>
<g id="Фигура_10_копия_3_1_" class="st0">
</g>
<g id="Фигура_10_копия_4_1_" class="st0">
</g>
<g id="Фигура_10_копия_5_1_" class="st0">
</g>
</svg>
