<?xml version="1.0" encoding="utf-8"?>
<!-- Generator: Adobe Illustrator 21.1.0, SVG Export Plug-In . SVG Version: 6.00 Build 0)  -->
<svg version="1.1" xmlns="http://www.w3.org/2000/svg" xmlns:xlink="http://www.w3.org/1999/xlink" x="0px" y="0px"
	 viewBox="0 0 42 44" style="enable-background:new 0 0 42 44;" xml:space="preserve">
<style type="text/css">
	.st0{enable-background:new    ;}
	.st1{fill-rule:evenodd;clip-rule:evenodd;fill:#FFFFFF;}
</style>
<g id="Фигура_10_1_" class="st0">
</g>
<g id="Фигура_10_копия_1_" class="st0">
	<g id="Фигура_10_копия_3_">
		<g>
			<path class="st1" d="M0,0v44h42V0H0z M15.7,41H3V28.3c1.3-0.1,4.7-0.4,5.9,0.3c-1.3,1.5-2,2.4-2,2.4l6,6c0,0,0.9-0.8,2.4-2.1
				C16.2,36,15.8,39.7,15.7,41z M39,41H18.2c2-2.4,5.3-6.9,5.5-9.7c0.1-1.1-1.2-2.3-1.2-2.3s8.9-9.1,11-11.3c2.6-2.7,2.8-8.6,2-9.4
				c-0.9-0.9-7.4,0-9.7,2c-1.8,1.8-11,10.9-11,10.9s-1.2-1.1-2.2-1.1c-2.7,0.2-7.2,3.5-9.6,5.6V3h36V41z M17.4,23.6
				c0-1.6,1.3-2.9,2.9-2.9c1.6,0,2.9,1.3,2.9,2.9c0,1.6-1.3,2.9-2.9,2.9S17.4,25.2,17.4,23.6z M23.8,17.2c0-1.6,1.3-2.9,2.9-2.9
				c1.6,0,2.9,1.3,2.9,2.9c0,1.6-1.3,2.9-2.9,2.9S23.8,18.8,23.8,17.2z"/>
		</g>
	</g>
</g>
<g id="Фигура_10_копия_2_1_" class="st0">
</g>
<g id="Фигура_10_копия_3_1_" class="st0">
</g>
<g id="Фигура_10_копия_4_1_" class="st0">
</g>
<g id="Фигура_10_копия_5_1_" class="st0">
</g>
</svg>
