<?xml version="1.0" encoding="utf-8"?>
<!-- Generator: Adobe Illustrator 21.1.0, SVG Export Plug-In . SVG Version: 6.00 Build 0)  -->
<svg version="1.1" xmlns="http://www.w3.org/2000/svg" xmlns:xlink="http://www.w3.org/1999/xlink" x="0px" y="0px"
	 viewBox="0 0 42 44" style="enable-background:new 0 0 42 44;" xml:space="preserve">
<style type="text/css">
	.st0{enable-background:new    ;}
	.st1{fill-rule:evenodd;clip-rule:evenodd;fill:#FFFFFF;}
</style>
<g id="Фигура_10_1_" class="st0">
	<g id="Фигура_10">
		<g>
			<path class="st1" d="M0,0v44h10.8h29.2H42V0H0z M39,38.7H27.7c4.5-1.5,7.4-5.5,7.4-10.4c0-3.3-1.7-5.8-2.3-6.6l0,0
				c0,0,1.4-2.3-0.4-4.8c-1.6-2.1-3.5-2.3-3.5-2.3l0-0.2l1.3-2.2c0.4-0.6,0.2-1.4-0.4-1.7l-0.4-0.3l2.4-3.9L29.3,5l-2.5,3.8
				l-0.4-0.2c-0.6-0.4-1.4-0.2-1.8,0.4l-8.2,13.3l-1.4-0.9L13,24.6l8.5,5.2l2-3.3l-1.4-0.8l2-3.2c0,0,0.7,1.1,1.9,1.7
				c1.7,0.9,3.5,0.3,3.5,0.3l0,0c0.4,0.6,1.3,2,1.3,4c0,3.1-2.7,6.8-7,6.8c-1.7,0-3.1-0.8-3.1-0.8h1.9v-2.7H9v2.7h5.4
				c0,0,1.6,2.9,5.3,4.2h-8.9c-0.6,0-1.1,0.5-1.1,1.1V41H3V3h36V38.7z"/>
		</g>
	</g>
</g>
<g id="Фигура_10_копия_1_" class="st0">
</g>
<g id="Фигура_10_копия_2_1_" class="st0">
</g>
<g id="Фигура_10_копия_3_1_" class="st0">
</g>
<g id="Фигура_10_копия_4_1_" class="st0">
</g>
<g id="Фигура_10_копия_5_1_" class="st0">
</g>
</svg>
