<?xml version="1.0" encoding="utf-8"?>
<!-- Generator: Adobe Illustrator 21.1.0, SVG Export Plug-In . SVG Version: 6.00 Build 0)  -->
<svg version="1.1" xmlns="http://www.w3.org/2000/svg" xmlns:xlink="http://www.w3.org/1999/xlink" x="0px" y="0px"
	 viewBox="0 0 42 44" style="enable-background:new 0 0 42 44;" xml:space="preserve">
<style type="text/css">
	.st0{enable-background:new    ;}
	.st1{fill-rule:evenodd;clip-rule:evenodd;fill:#FFFFFF;}
</style>
<g id="Фигура_10_1_" class="st0">
</g>
<g id="Фигура_10_копия_1_" class="st0">
</g>
<g id="Фигура_10_копия_2_1_" class="st0">
</g>
<g id="Фигура_10_копия_3_1_" class="st0">
</g>
<g id="Фигура_10_копия_4_1_" class="st0">
	<g id="Фигура_10_копия_4">
		<g>
			<path class="st1" d="M19,23.9c1.3,0.9,3.5,1.9,3.5,1.9s1.9-3.7,2.3-6c0.5-2.3-1-5.7-1.9-7.3s-0.6-1-2-2.4
				c-1.4-1.4-2.2-3.4-2.8-3.1c-0.6,0.3-2,1.4-2.6,3.5s-1.7,3-0.8,7.6C15.5,21.4,17.8,23,19,23.9z M0,0v44h42V0H0z M39,41H24
				c0-0.3,0-0.8,0-1.2c0.1-1.6,0.5-4.5,2-7.8c0.3-0.7,0.7-1.3,1-1.8c1.6-0.4,3.7-1,5-1.7c3.1-1.7,5-5.8,5-9.7s-0.3-3.8-0.5-4
				c-0.1-0.1-1.8,0.9-4.6,1.6c-2.7,0.7-4,1.9-5.9,4.6c-1.3,1.9-1.8,5-1.6,6.7c0.1,0.5,0.2,1.2,0.3,1.8C24.5,30,24.3,30.5,24,31
				c-0.8,1.5-1.3,3.3-1.7,4.5c-0.1-0.1-0.2-0.3-0.2-0.4c0.3-1.9-0.3-6.1-2-8c-1.6-1.8-5.1-2.9-8-3.2c-2.6-0.3-6.1-0.8-6-1.1
				c-0.4,1.4,0.3,7.2,2,9.6c1.7,2.4,5.3,5.1,8.5,5.1c1.3,0,2.3-0.1,3.2-0.3c0.4,0.4,0.9,0.9,1.3,1.6c0.4,0.6,0.6,1.4,0.8,2.1H3V3h36
				V41z"/>
		</g>
	</g>
</g>
<g id="Фигура_10_копия_5_1_" class="st0">
</g>
</svg>
