<?xml version="1.0" encoding="utf-8"?>
<!-- Generator: Adobe Illustrator 21.1.0, SVG Export Plug-In . SVG Version: 6.00 Build 0)  -->
<svg version="1.1" xmlns="http://www.w3.org/2000/svg" xmlns:xlink="http://www.w3.org/1999/xlink" x="0px" y="0px"
	 viewBox="0 0 49.9 255.8" style="enable-background:new 0 0 49.9 255.8;" xml:space="preserve">
<style type="text/css">
	.st0{enable-background:new    ;}
	.st1{fill-rule:evenodd;clip-rule:evenodd;fill:#E7353D;}
	.st2{fill-rule:evenodd;clip-rule:evenodd;fill:#808080;}
	.st3{fill:#E6454C;}
</style>
<g id="TRL_1_" class="st0">
	<g id="TRL">
		<g>
			<path class="st1" d="M0,4h5.9v15.9h4.4V4h5.9V0.2H0V4z M32.2,15.5c-0.4-0.7-0.9-1.4-1.3-2c-0.4-0.6-0.8-1.2-1.2-1.7
				c1.2-0.5,2.1-1.2,2.7-2c0.6-0.9,0.9-2,0.9-3.4c0-2.2-0.8-3.8-2.4-4.9c-1.6-1-3.8-1.6-6.8-1.6c-0.8,0-1.7,0-2.8,0.1
				c-1,0.1-2,0.2-3,0.4v19.4h4.4v-7.2h2.2c0.4,0.5,0.8,1,1.1,1.5c0.4,0.6,0.8,1.1,1.2,1.8c0.4,0.6,0.8,1.3,1.1,1.9
				c0.4,0.7,0.7,1.3,1.1,2h4.9c-0.3-0.7-0.7-1.5-1.1-2.2C33.1,16.9,32.7,16.2,32.2,15.5z M27.7,8.6C27,9,25.8,9.2,24.2,9.2h-1.2V3.9
				c0.2,0,0.5,0,0.7-0.1c0.3,0,0.5,0,0.9,0c1.4,0,2.5,0.2,3.2,0.6c0.7,0.4,1.1,1.1,1.1,2.1C28.8,7.4,28.5,8.1,27.7,8.6z M41.3,16.1
				V0.2h-4.4v19.6h13.1v-3.8H41.3z"/>
		</g>
	</g>
</g>
<g id="Прямоугольник_4_1_" class="st0">
	<g id="Прямоугольник_4">
		<g>
			<rect x="19.4" y="31.8" class="st2" width="17" height="17.2"/>
		</g>
	</g>
</g>
<g id="Прямоугольник_4_копия_1_" class="st0">
	<g id="Прямоугольник_4_копия">
		<g>
			<rect x="19.4" y="57.3" class="st2" width="17" height="17.2"/>
		</g>
	</g>
</g>
<g id="Прямоугольник_4_копия_2_1_" class="st0">
	<g id="Прямоугольник_4_копия_2">
		<g>
			<rect x="19.4" y="83.8" class="st2" width="17" height="17.2"/>
		</g>
	</g>
</g>
<g id="Прямоугольник_4_копия_3_1_" class="st0">
	<g id="Прямоугольник_4_копия_3">
		<g>
			<rect x="19.4" y="109.2" class="st2" width="17" height="17.2"/>
		</g>
	</g>
</g>
<g id="Прямоугольник_4_копия_4_1_" class="st0">
	<g id="Прямоугольник_4_копия_4">
		<g>
			<rect x="19.4" y="135.7" class="st2" width="17" height="17.2"/>
		</g>
	</g>
</g>
<g id="Прямоугольник_4_копия_5_1_" class="st0">
	<g id="Прямоугольник_4_копия_5">
		<g>
			<rect x="19.4" y="161.2" class="st2" width="17" height="17.2"/>
		</g>
	</g>
</g>
<g id="Прямоугольник_4_копия_6_1_" class="st0">
</g>
<g id="Прямоугольник_4_копия_9_1_" class="st0">
</g>
<g id="Прямоугольник_4_копия_8_1_" class="st0">
	<g id="Прямоугольник_4_копия_8">
		<g>
			<path class="st3" d="M32.4,242.6v9.2h-9v-9.2H32.4 M36.4,238.6h-17v17.2h17V238.6L36.4,238.6z"/>
		</g>
	</g>
	<g id="Прямоугольник_4_копия_8_3_">
		<g>
			<path class="st3" d="M32.4,216.6v9.2h-9v-9.2H32.4 M36.4,212.6h-17v17.2h17V212.6L36.4,212.6z"/>
		</g>
	</g>
	<g id="Прямоугольник_4_копия_8_5_">
		<g>
			<path class="st3" d="M32.4,190.6v9.2h-9v-9.2H32.4 M36.4,186.6h-17v17.2h17V186.6L36.4,186.6z"/>
		</g>
	</g>
</g>
</svg>
